/vscmnt/brussel_pixiu_data/_data_brussel/112/vsc11236/PredSimResults/SUBJ10mtu3D/weighted-LRposFixed/trackIG/worker_01.mot
version=1
nRows=9
nColumns=50
inDegrees=yes
endheader
                time	         pelvis_tilt	         pelvis_list	     pelvis_rotation	           pelvis_tx	           pelvis_ty	           pelvis_tz	       hip_flexion_r	     hip_adduction_r	      hip_rotation_r	        knee_angle_r	       ankle_angle_r	         mtp_angle_r	       hip_flexion_l	     hip_adduction_l	      hip_rotation_l	        knee_angle_l	       ankle_angle_l	         mtp_angle_l	    lumbar_extension	      lumbar_bending	     lumbar_rotation	 ercspn_r/activation	 intobl_r/activation	 extobl_r/activation	    abd_r/activation	    add_r/activation	hamstrings_r/activation	bifemsh_r/activation	glut_max_r/activation	iliopsoas_r/activation	rect_fem_r/activation	  vasti_r/activation	gastroc_r/activation	 soleus_r/activation	tib_ant_r/activation	 ercspn_l/activation	 intobl_l/activation	 extobl_l/activation	    abd_l/activation	    add_l/activation	hamstrings_l/activation	bifemsh_l/activation	glut_max_l/activation	iliopsoas_l/activation	rect_fem_l/activation	  vasti_l/activation	gastroc_l/activation	 soleus_l/activation	tib_ant_l/activation	
          1.12239442	         -3.80471076	         -2.94812139	          9.87591991	          1.30197753	          0.82908972	         -0.01332258	         27.63289606	         -0.66640728	         -7.68691871	         -3.22938872	          6.89344716	          0.25290466	        -14.26438320	         -3.41577337	          5.54056166	         -7.51632880	          9.53220747	         24.67048521	         -8.05048999	          1.19531082	         -3.61267853	          0.09038207	          0.16652812	          0.02162924	          0.01241969	          0.09591098	          0.03623709	          0.14927601	          0.01000010	          0.07238844	          0.01118947	          0.01000038	          0.01545146	          0.01098429	          0.26038776	          0.02721698	          0.01000011	          0.01000016	          0.04054341	          0.01806527	          0.02162397	          0.13360817	          0.03268360	          0.30334778	          0.01000221	          0.01000051	          0.23695225	          0.23261174	          0.01787285	
          1.13361837	         -3.87418363	         -2.76731461	          9.68330704	          1.31713192	          0.82749749	         -0.01301099	         27.68847555	         -0.43276215	         -6.56034015	         -4.75267429	          6.62409733	          0.25490209	        -14.35119668	         -3.20021689	          4.85042865	         -9.26122582	          8.97416691	         26.29436751	         -7.85015508	          1.54405228	         -3.79637646	          0.07613919	          0.14028690	          0.01822078	          0.01046254	          0.17248021	          0.03060548	          0.12576096	          0.05701986	          0.06098102	          0.01000103	          0.01000020	          0.01984950	          0.01409186	          0.26052415	          0.07557641	          0.01000017	          0.01000046	          0.03415432	          0.06165131	          0.01821681	          0.11255339	          0.02753312	          0.31765234	          0.01000137	          0.01000117	          0.19961178	          0.21810923	          0.01505633	
          1.14484231	         -3.92851310	         -2.59732052	          9.43416103	          1.33260862	          0.82600532	         -0.01266955	         27.56820672	         -0.23799709	         -5.41270963	         -6.28944628	          6.34433225	          0.24232650	        -14.30903682	         -2.98367593	          4.10421336	        -11.30329754	          8.32996981	         27.84932097	         -7.62749948	          1.92277898	         -3.95725533	          0.06416132	          0.12498687	          0.01534946	          0.05111773	          0.14530033	          0.04256479	          0.10594530	          0.05550007	          0.05137124	          0.01000046	          0.01000014	          0.01672159	          0.01187129	          0.29322059	          0.08968853	          0.01000011	          0.01000043	          0.02877206	          0.05283771	          0.01534845	          0.09481657	          0.02319428	          0.30416635	          0.01000134	          0.01000052	          0.16815564	          0.20143643	          0.01268367	
          1.15606625	         -3.96981873	         -2.43557352	          9.12729943	          1.34820673	          0.82477072	         -0.01223098	         27.31038982	         -0.03230338	         -4.34330904	         -7.59252422	          5.95810334	          0.23406740	        -14.06639616	         -2.77029847	          3.30712920	        -13.72478423	          7.55957801	         29.26997233	         -7.40529631	          2.31643746	         -4.09517947	          0.07951542	          0.10529068	          0.01293063	          0.10067074	          0.15196084	          0.04367381	          0.08925018	          0.06934276	          0.04327584	          0.01000036	          0.01000016	          0.01408658	          0.01000068	          0.31409917	          0.11372520	          0.01000009	          0.01000023	          0.02423797	          0.05605774	          0.01561925	          0.07987484	          0.01953918	          0.29177766	          0.01000095	          0.01096639	          0.14165656	          0.16969621	          0.01068490	
          1.16729020	         -3.99856179	         -2.28081537	          8.76754114	          1.36374417	          0.82394092	         -0.01170050	         27.00168754	          0.19616346	         -3.37758636	         -8.81127676	          5.56785260	          0.22273235	        -13.57645410	         -2.56414804	          2.44980293	        -16.56923768	          6.65780299	         30.38769835	         -7.20015382	          2.72274525	         -4.20912266	          0.07729378	          0.08869831	          0.01089300	          0.12508987	          0.16328079	          0.04241175	          0.07518584	          0.07697726	          0.03645616	          0.01000043	          0.02992279	          0.01186690	          0.01000084	          0.33569602	          0.13729654	          0.01000011	          0.01000024	          0.02041839	          0.07112212	          0.01809921	          0.06728776	          0.01646008	          0.26987140	          0.01000044	          0.01000037	          0.11933338	          0.14295439	          0.01000005	
          1.17851414	         -4.01510938	         -2.13243709	          8.35780559	          1.37911540	          0.82361055	         -0.01109135	         26.66118167	          0.44009771	         -2.51572096	         -9.98412072	          5.26160495	          0.21134543	        -12.81192417	         -2.37543897	          1.51306608	        -19.85246457	          5.62611078	         31.00225620	         -7.01969356	          3.13855089	         -4.29876289	          0.06644472	          0.07472068	          0.01000022	          0.13609671	          0.15117362	          0.04519325	          0.06333791	          0.06484742	          0.03071118	          0.01000038	          0.07498641	          0.01000050	          0.01000048	          0.34598567	          0.14891493	          0.01000012	          0.01000020	          0.01720073	          0.08152653	          0.01635832	          0.05668432	          0.01386620	          0.23730476	          0.01000033	          0.01000015	          0.10052803	          0.12042670	          0.01000007	
          1.18973809	         -4.02108880	         -1.98483805	          7.89896507	          1.39426053	          0.82385255	         -0.01041954	         26.25316200	          0.68733416	         -1.74405365	        -11.04407576	          5.07403270	          0.19874046	        -11.77233302	         -2.21545026	          0.49226190	        -23.53303156	          4.39576429	         31.01235993	         -6.86882656	          3.55517533	         -4.36419762	          0.05597406	          0.06294573	          0.01000027	          0.13901499	          0.12735092	          0.04559462	          0.05335709	          0.05462893	          0.02587152	          0.01000033	          0.12653300	          0.01000187	          0.01000240	          0.34884033	          0.15567691	          0.01000013	          0.01000029	          0.01449012	          0.09570097	          0.01503666	          0.04775225	          0.01168109	          0.19990899	          0.01000023	          0.01000006	          0.08468616	          0.10144906	          0.01000005	
          1.20096203	         -4.01887079	         -1.82892042	          7.38816117	          1.40914103	          0.82472520	         -0.00971226	         25.72367974	          0.92219373	         -1.05575742	        -11.89117769	          5.02447180	          0.18837318	        -10.48133588	         -2.08945184	         -0.60166361	        -27.50482905	          2.83731207	         30.41829098	         -6.75109488	          3.96273294	         -4.40165914	          0.04715337	          0.05302634	          0.01000025	          0.13926743	          0.10728219	          0.04692103	          0.04494915	          0.04602051	          0.02179454	          0.01000031	          0.15490472	          0.01000062	          0.01000056	          0.34150915	          0.15558306	          0.01000007	          0.01000031	          0.01220668	          0.11128955	          0.01268130	          0.04280729	          0.01000002	          0.16840608	          0.01000018	          0.01000003	          0.07134076	          0.08546205	          0.01881330	
          1.21218597	         -4.01001009	         -1.65218974	          6.82580743	          1.42372942	          0.82619019	         -0.00899364	         25.05439109	          1.12610476	         -0.42544943	        -12.48677503	          5.09127680	          0.18207427	         -8.97976393	         -1.99732951	         -1.75364881	        -31.66701675	          1.05229060	         28.97401311	         -6.66976670	          4.34696424	         -4.40932634	          0.03972266	          0.04467012	          0.01000040	          0.14866046	          0.09037599	          0.04607633	          0.03786622	          0.03876844	          0.01836003	          0.01000029	          0.14973817	          0.01182922	          0.01163566	          0.32612405	          0.16489206	          0.02746863	          0.01000034	          0.01028308	          0.09456224	          0.01409130	          0.03606267	          0.01000005	          0.14186759	          0.01000021	          0.01000006	          0.06009841	          0.07199438	          0.07520993	
